<svg width="92" height="92" viewBox="0 0 92 92" fill="none" xmlns="http://www.w3.org/2000/svg">
<mask id="mask0_109301_247177" style="mask-type:alpha" maskUnits="userSpaceOnUse" x="0" y="0" width="92" height="92">
<path d="M91.2247 45.5098C91.2247 70.6441 70.8492 91.0196 45.7149 91.0196C20.5805 91.0196 0.205078 70.6441 0.205078 45.5098C0.205078 20.3754 20.5805 0 45.7149 0C70.8492 0 91.2247 20.3754 91.2247 45.5098Z" fill="url(#paint0_linear_109301_247177)"/>
</mask>
<g mask="url(#mask0_109301_247177)">
<path fill-rule="evenodd" clip-rule="evenodd" d="M-40.1631 -18.1916L-34.1559 -15.1113C-28.1486 -12.031 -16.1342 -5.87031 -3.50056 -3.01448C9.13309 -0.158643 22.386 -0.607622 35.6388 -1.0566C48.8917 -1.50558 62.1446 -1.95456 75.1321 -0.98719C88.1195 -0.019822 100.842 2.36389 107.203 3.55575L113.564 4.74761L108.787 30.2419L102.426 29.05C96.0648 27.8582 83.3427 25.4744 70.6206 23.0907C57.8985 20.707 45.1764 18.3233 32.4543 15.9396C19.7322 13.5559 7.01007 11.1721 -5.71204 8.78842C-18.4342 6.40471 -31.1563 4.02099 -37.5173 2.82913L-43.8784 1.63727L-40.1631 -18.1916Z" fill="url(#paint1_linear_109301_247177)"/>
<path fill-rule="evenodd" clip-rule="evenodd" d="M-35.2534 -1.77568L-29.1605 1.77968C-23.0677 5.33503 -10.882 12.4457 1.8867 14.6788C14.6554 16.9118 28.0072 14.2671 41.3589 11.6225C54.7107 8.9778 68.0625 6.33314 81.1643 5.77891C94.2662 5.22468 107.118 6.76089 113.544 7.529L119.97 8.29711L115.473 45.925L109.047 45.1569C102.621 44.3888 89.7685 42.8526 76.9165 41.3164C64.0645 39.7802 51.2125 38.2439 38.3605 36.7077C25.5085 35.1715 12.6565 33.6353 -0.195563 32.0991C-13.0476 30.5629 -25.8996 29.0267 -32.3256 28.2586L-38.7516 27.4905L-35.2534 -1.77568Z" fill="url(#paint2_linear_109301_247177)"/>
<path fill-rule="evenodd" clip-rule="evenodd" d="M-38.7508 10.0805L-33.1003 15.0647C-27.4499 20.0489 -16.1489 30.0173 -3.60442 33.3492C8.94005 36.681 22.728 33.3761 36.516 30.0713C50.3039 26.7665 64.0919 23.4617 77.3469 23.0011C90.602 22.5406 103.324 24.9243 109.685 26.1162L116.046 27.308L106.454 78.5048L100.092 77.313C93.7314 76.1211 81.0093 73.7374 68.2872 71.3537C55.5651 68.97 42.843 66.5862 30.1209 64.2025C17.3988 61.8188 4.67666 59.4351 -8.04545 57.0514C-20.7676 54.6677 -33.4897 52.2839 -39.8507 51.0921L-46.2118 49.9002L-38.7508 10.0805Z" fill="url(#paint3_linear_109301_247177)"/>
<path fill-rule="evenodd" clip-rule="evenodd" d="M-33.3426 31.2306L-27.9604 37.6463C-22.5781 44.0621 -11.8136 56.8936 0.663836 60.5833C13.1412 64.273 27.3315 58.8209 41.5218 53.3687C55.7121 47.9166 69.9024 42.4645 83.3586 40.9303C96.8148 39.396 109.537 41.7798 115.898 42.9716L122.259 44.1635L109.045 114.686L102.684 113.494C96.3233 112.302 83.6012 109.919 70.8791 107.535C58.1569 105.151 45.4348 102.768 32.7127 100.384C19.9906 98.0001 7.2685 95.6164 -5.45361 93.2327C-18.1757 90.849 -30.8978 88.4653 -37.2589 87.2734L-43.6199 86.0815L-33.3426 31.2306Z" fill="url(#paint4_linear_109301_247177)"/>
</g>
<defs>
<linearGradient id="paint0_linear_109301_247177" x1="63.5949" y1="-6.35559e-07" x2="49.3947" y2="98.7168" gradientUnits="userSpaceOnUse">
<stop stop-color="#29CDFF"/>
<stop offset="0.378601" stop-color="#148EFF"/>
<stop offset="1" stop-color="#0A60FF"/>
</linearGradient>
<linearGradient id="paint1_linear_109301_247177" x1="67.2208" y1="-3.93557" x2="61.2584" y2="24.1436" gradientUnits="userSpaceOnUse">
<stop stop-color="#29CDFF"/>
<stop offset="0.378601" stop-color="#148EFF"/>
<stop offset="1" stop-color="#0A60FF"/>
</linearGradient>
<linearGradient id="paint2_linear_109301_247177" x1="73.1541" y1="2.70114" x2="66.7212" y2="44.1298" gradientUnits="userSpaceOnUse">
<stop stop-color="#29CDFF"/>
<stop offset="0.378601" stop-color="#148EFF"/>
<stop offset="1" stop-color="#0A60FF"/>
</linearGradient>
<linearGradient id="paint3_linear_109301_247177" x1="69.7033" y1="18.6248" x2="56.3811" y2="74.6575" gradientUnits="userSpaceOnUse">
<stop stop-color="#29CDFF"/>
<stop offset="0.378601" stop-color="#148EFF"/>
<stop offset="1" stop-color="#0A60FF"/>
</linearGradient>
<linearGradient id="paint4_linear_109301_247177" x1="75.9162" y1="35.4803" x2="56.1879" y2="112.239" gradientUnits="userSpaceOnUse">
<stop stop-color="#29CDFF"/>
<stop offset="0.378601" stop-color="#148EFF"/>
<stop offset="1" stop-color="#0A60FF"/>
</linearGradient>
</defs>
</svg>
