<svg xmlns="http://www.w3.org/2000/svg" width="32" height="32" viewBox="0 0 24 24"><path fill="currentColor" d="M4.5 17q-.213 0-.356-.144Q4 16.712 4 16.5t.144-.356Q4.288 16 4.5 16h10.423q.213 0 .356.144t.144.357q0 .212-.144.356q-.143.143-.356.143zm14.438-1.258l-3.196-3.177Q15.5 12.323 15.5 12q0-.323.242-.565l3.196-3.158q.14-.14.345-.15q.204-.01.363.15q.16.16.16.354q0 .194-.16.354L16.573 12l3.073 3.035q.16.134.16.34t-.16.367q-.134.14-.34.14t-.368-.14M4.5 12.5q-.213 0-.356-.144Q4 12.212 4 12t.144-.356q.144-.143.356-.143h7.577q.212 0 .356.144t.144.357t-.144.356q-.144.143-.356.143zm0-4.5q-.213 0-.356-.144T4 7.499q0-.212.144-.356Q4.288 7 4.5 7h10.423q.213 0 .356.144q.144.144.144.357q0 .212-.144.356q-.143.143-.356.143z"/></svg>